<svg width="12" height="16" viewBox="0 0 12 16" fill="none" xmlns="http://www.w3.org/2000/svg">
<mask id="mask0_13_161" style="mask-type:alpha" maskUnits="userSpaceOnUse" x="0" y="0" width="12" height="16">
<path d="M3.87097 0.580645C3.87097 0.259964 4.13093 0 4.45161 0H7.54839C7.86907 0 8.12903 0.259964 8.12903 0.580645V1.16129H11.4194C11.74 1.16129 12 1.42125 12 1.74194C12 2.06262 11.74 2.32258 11.4194 2.32258H0.580645C0.259964 2.32258 0 2.06262 0 1.74194C0 1.42125 0.259964 1.16129 0.580645 1.16129H3.87097V0.580645Z" fill="white"/>
<path fill-rule="evenodd" clip-rule="evenodd" d="M1.54056 4.40887C1.56235 4.21283 1.72805 4.06452 1.92529 4.06452H10.0747C10.2719 4.06452 10.4376 4.21283 10.4594 4.40887L10.6144 5.80346C10.8937 8.31724 10.8937 10.8542 10.6144 13.368L10.5991 13.5053C10.4974 14.4209 9.78783 15.1509 8.87555 15.2786C6.96782 15.5457 5.03218 15.5457 3.12444 15.2786C2.21216 15.1509 1.50259 14.4209 1.40086 13.5053L1.38561 13.368C1.1063 10.8542 1.1063 8.31724 1.38561 5.80345L1.54056 4.40887ZM5.03226 7.08387C5.03226 6.76318 4.77229 6.50322 4.45161 6.50322C4.13093 6.50322 3.87097 6.76318 3.87097 7.08387L3.87097 12.5032C3.87097 12.8239 4.13093 13.0839 4.45161 13.0839C4.77229 13.0839 5.03226 12.8239 5.03226 12.5032L5.03226 7.08387ZM8.12903 7.08387C8.12903 6.76318 7.86907 6.50322 7.54839 6.50322C7.22771 6.50322 6.96774 6.76318 6.96774 7.08387V12.5032C6.96774 12.8239 7.22771 13.0839 7.54839 13.0839C7.86907 13.0839 8.12903 12.8239 8.12903 12.5032V7.08387Z" fill="white"/>
</mask>
<g mask="url(#mask0_13_161)">
<rect width="12" height="16" rx="2" fill="white"/>
</g>
</svg>
