<svg width="12" height="10" viewBox="0 0 12 10" fill="none" xmlns="http://www.w3.org/2000/svg">
<path d="M3.53143 0C1.62455 0 0 1.434 0 3.29641C0 4.58121 0.59818 5.66289 1.39096 6.55891C2.18103 7.45186 3.20033 8.20139 4.12181 8.82872L5.71172 9.9111C5.88584 10.0296 6.11416 10.0296 6.28828 9.9111L7.87819 8.82872C8.79967 8.20139 9.81897 7.45187 10.609 6.55891C11.4018 5.66289 12 4.58121 12 3.29641C12 1.434 10.3754 0 8.46857 0C7.48562 0 6.62068 0.463544 6 1.06333C5.37932 0.463544 4.51438 0 3.53143 0Z" fill="white"/>
</svg>
