<svg width="102" height="102" viewBox="0 0 102 102" fill="none" xmlns="http://www.w3.org/2000/svg">
<mask id="mask0_40_9" style="mask-type:alpha" maskUnits="userSpaceOnUse" x="0" y="0" width="102" height="102">
<path d="M34.1613 0.655947C26.3307 -0.218649 18.2385 -0.218649 10.4079 0.655947C5.37013 1.21861 1.29656 5.18298 0.702477 10.2589C-0.234159 18.2617 -0.234159 26.3464 0.702477 34.3492C1.29656 39.4252 5.37014 43.3895 10.4079 43.9522C18.2385 44.8268 26.3307 44.8268 34.1613 43.9522C39.1991 43.3895 43.2726 39.4252 43.8667 34.3492C44.8034 26.3464 44.8034 18.2617 43.8667 10.2589C43.2726 5.18297 39.1991 1.21861 34.1613 0.655947Z" fill="black"/>
<path d="M34.1613 58.0478C26.3307 57.1732 18.2385 57.1732 10.4079 58.0478C5.37013 58.6105 1.29656 62.5748 0.702477 67.6508C-0.234159 75.6536 -0.234159 83.7383 0.702477 91.7411C1.29656 96.817 5.37014 100.781 10.4079 101.344C18.2385 102.219 26.3307 102.219 34.1613 101.344C39.1991 100.781 43.2726 96.817 43.8667 91.7411C44.8034 83.7383 44.8034 75.6536 43.8667 67.6508C43.2726 62.5748 39.1991 58.6105 34.1613 58.0478Z" fill="black"/>
<path d="M91.5922 0.655947C83.7615 -0.218649 75.6693 -0.218649 67.8387 0.655947C62.8009 1.21861 58.7274 5.18298 58.1333 10.2589C57.1967 18.2617 57.1967 26.3464 58.1333 34.3492C58.7274 39.4252 62.8009 43.3895 67.8387 43.9522C75.6693 44.8268 83.7615 44.8268 91.5922 43.9522C96.6299 43.3895 100.703 39.4252 101.298 34.3492C102.234 26.3464 102.234 18.2617 101.298 10.2589C100.703 5.18297 96.6299 1.21861 91.5922 0.655947Z" fill="black"/>
<path d="M91.5922 58.0478C83.7615 57.1732 75.6693 57.1732 67.8387 58.0478C62.8009 58.6105 58.7274 62.5748 58.1333 67.6508C57.1967 75.6536 57.1967 83.7383 58.1333 91.7411C58.7274 96.817 62.8009 100.781 67.8387 101.344C75.6693 102.219 83.7615 102.219 91.5922 101.344C96.6299 100.781 100.703 96.817 101.298 91.7411C102.234 83.7383 102.234 75.6536 101.298 67.6508C100.703 62.5748 96.6299 58.6105 91.5922 58.0478Z" fill="black"/>
</mask>
<g mask="url(#mask0_40_9)">
<rect width="102" height="102" fill="#B8F1FF"/>
</g>
</svg>
